<?xml version="1.0" standalone="no"?>
<!DOCTYPE svg PUBLIC "-//W3C//DTD SVG 20010904//EN"
 "http://www.w3.org/TR/2001/REC-SVG-20010904/DTD/svg10.dtd">
<svg version="1.0" xmlns="http://www.w3.org/2000/svg"
 width="838.000000pt" height="838.000000pt" viewBox="0 0 838.000000 838.000000"
 preserveAspectRatio="xMidYMid meet">
<metadata>
Created by potrace 1.11, written by Peter Selinger 2001-2013
</metadata>
<g transform="translate(0.000000,838.000000) scale(0.100000,-0.100000)"
fill="#000000" stroke="none">
<path d="M7922 6730 l-144 -180 -3864 0 c-3857 0 -3864 0 -3864 -20 0 -20 8
-20 3846 -22 l3846 -3 -174 -217 -173 -218 -3672 0 c-3665 0 -3673 0 -3673
-20 0 -20 8 -20 3655 -22 l3655 -3 -170 -212 -170 -213 -279 0 -278 0 -7 41
c-16 98 -104 214 -204 267 -223 119 -499 4 -573 -239 l-21 -69 -2819 0 -2819
0 0 -25 0 -25 2818 0 2818 0 11 -66 11 -65 -90 -150 -91 -149 -2739 0 -2738 0
0 -25 0 -25 2720 0 c1496 0 2720 -2 2720 -5 0 -3 -63 -107 -139 -233 l-139
-227 -459 -3 -459 -2 -105 54 c-103 54 -104 56 -137 120 -126 245 -446 297
-641 103 -60 -60 -98 -131 -114 -216 l-12 -61 -1617 0 -1618 0 0 -25 0 -25
1620 0 1620 0 6 -24 c5 -19 -23 -71 -134 -253 l-140 -228 -1486 -3 -1486 -2 0
-25 0 -25 1468 -2 1468 -3 -132 -215 -132 -215 -1341 -3 c-1333 -2 -1341 -2
-1341 -22 0 -20 7 -20 1326 -20 729 0 1324 -4 1322 -8 -1 -5 -61 -104 -132
-220 l-129 -212 -1194 0 c-1186 0 -1193 0 -1193 -20 0 -20 8 -20 1179 -22
l1179 -3 -145 -237 -145 -238 -1034 0 c-1027 0 -1034 0 -1034 -20 0 -20 8 -20
1020 -22 l1020 -3 -157 -258 -158 -257 -862 0 c-856 0 -863 0 -863 -20 0 -20
8 -20 849 -22 l849 -3 -130 -212 -130 -213 -724 0 -724 0 0 -25 0 -25 4145 0
4145 0 0 25 0 25 -3115 2 -3115 3 133 210 133 210 2982 3 c2974 2 2982 2 2982
22 0 20 -7 20 -2965 20 -1631 0 -2965 2 -2965 5 0 2 72 119 161 260 l161 255
2804 0 c2797 0 2804 0 2804 20 0 20 -8 20 -2790 22 l-2789 3 148 235 148 235
2642 3 c2632 2 2641 2 2641 22 0 20 -9 20 -2625 22 l-2626 3 137 217 137 218
2489 0 c2481 0 2488 0 2488 20 0 20 -7 20 -1617 21 -1322 0 -1611 3 -1578 13
102 32 182 94 232 177 35 59 63 152 63 211 l0 38 1460 0 1460 0 0 25 0 25
-1464 0 c-806 0 -1467 3 -1470 8 -2 4 67 118 153 252 l158 245 1311 3 1312 2
0 25 0 25 -1290 0 c-709 0 -1290 3 -1290 6 0 4 66 109 147 235 l147 229 197 0
197 0 6 -54 c16 -126 110 -251 234 -309 61 -29 75 -32 167 -32 92 0 106 3 167
32 122 58 205 166 230 301 l12 62 538 0 538 0 0 25 0 25 -545 0 -545 0 -2 28
c0 15 -1 32 -1 38 0 6 63 90 139 187 l139 177 408 0 407 0 0 25 0 25 -386 2
-385 3 167 213 167 212 228 0 c222 0 229 1 229 20 0 19 -8 20 -211 22 l-210 3
171 218 171 217 40 0 c32 0 39 3 39 20 0 13 -7 20 -20 20 -11 0 -20 3 -20 6 0
3 20 30 45 61 25 30 45 58 45 63 0 6 -305 230 -313 230 -1 0 -67 -81 -145
-180z m-974 -1221 c-32 -40 -33 -40 -88 -35 -49 6 -124 -6 -195 -29 -15 -4
-40 9 -94 49 l-75 56 243 0 242 0 -33 -41z m-604 -336 c28 -20 55 -40 61 -45
5 -4 -71 -8 -168 -8 -145 0 -175 2 -171 14 3 7 27 16 55 19 28 4 74 17 102 31
29 13 56 25 61 25 4 1 31 -16 60 -36z m-1207 -635 c-2 -7 -29 -51 -58 -98 -47
-74 -57 -85 -80 -82 -22 3 -117 -15 -174 -32 -14 -4 -88 29 -240 109 l-220
114 389 1 c306 0 387 -3 383 -12z m-1002 -409 l159 -84 -162 -3 c-89 -1 -234
-1 -322 0 l-159 3 49 78 c27 42 55 77 62 77 7 0 40 13 73 29 l60 29 40 -23
c22 -12 112 -60 200 -106z m358 -190 c78 -40 97 -54 97 -72 0 -33 53 -138 90
-181 46 -51 106 -91 176 -115 l59 -20 -788 -1 -789 0 21 33 c11 17 73 116 138
219 l118 188 390 0 390 0 98 -51z"/>
</g>
</svg>
